{
 "accessors": [
  {
   "componentType": 5126,
   "type": "VEC3",
   "count": 3797,
   "max": [
    89,
    48.99140167236328,
    5.199999809265137
   ],
   "min": [
    -56,
    24.00779914855957,
    5.099999904632568
   ],
   "bufferView": 0
  },
  {
   "componentType": 5126,
   "type": "VEC3",
   "count": 3797,
   "bufferView": 1
  },
  {
   "componentType": 5123,
   "type": "SCALAR",
   "count": 10779,
   "bufferView": 2
  },
  {
   "componentType": 5126,
   "type": "VEC3",
   "count": 5535,
   "max": [
    94,
    54,
    20
   ],
   "min": [
    -61,
    19,
    0
   ],
   "bufferView": 3
  },
  {
   "componentType": 5126,
   "type": "VEC3",
   "count": 5535,
   "bufferView": 4
  },
  {
   "componentType": 5123,
   "type": "SCALAR",
   "count": 13353,
   "bufferView": 5
  }
 ],
 "asset": {
  "version": "2.0",
  "generator": "clara.io"
 },
 "bufferViews": [
  {
   "buffer": 0,
   "byteOffset": 0,
   "byteLength": 45564,
   "target": 34962,
   "byteStride": 12
  },
  {
   "buffer": 0,
   "byteOffset": 45564,
   "byteLength": 45564,
   "target": 34962,
   "byteStride": 12
  },
  {
   "buffer": 0,
   "byteOffset": 91128,
   "byteLength": 21558,
   "target": 34963
  },
  {
   "buffer": 0,
   "byteOffset": 112688,
   "byteLength": 66420,
   "target": 34962,
   "byteStride": 12
  },
  {
   "buffer": 0,
   "byteOffset": 179108,
   "byteLength": 66420,
   "target": 34962,
   "byteStride": 12
  },
  {
   "buffer": 0,
   "byteOffset": 245528,
   "byteLength": 26706,
   "target": 34963
  }
 ],
 "buffers": [
  {
   "byteLength": 272236,
   "uri": "data:application/octet-stream;base64,"
  }
 ],
 "materials": [
  {
   "name": "group_0_16448250Mat",
   "pbrMetallicRoughness": {
    "baseColorFactor": [
     0.8,
     0.8,
     0.8,
     1
    ],
    "roughnessFactor": 0.3015,
    "metallicFactor": 0
   }
  },
  {
   "name": "group_0_4754452Mat",
   "pbrMetallicRoughness": {
    "baseColorFactor": [
     0.8,
     0.8,
     0.8,
     1
    ],
    "roughnessFactor": 0.3015,
    "metallicFactor": 0
   }
  }
 ],
 "meshes": [
  {
   "primitives": [
    {
     "indices": 2,
     "material": 0,
     "mode": 4,
     "attributes": {
      "POSITION": 0,
      "NORMAL": 1
     }
    }
   ]
  },
  {
   "primitives": [
    {
     "indices": 5,
     "material": 1,
     "mode": 4,
     "attributes": {
      "POSITION": 3,
      "NORMAL": 4
     }
    }
   ]
  }
 ],
 "nodes": [
  {
   "name": "tinker_root",
   "scale": [
    0.009999999776482582,
    0.009999999776482582,
    0.009999999776482582
   ],
   "children": [
    1,
    2
   ]
  },
  {
   "name": "group_0_16448250",
   "mesh": 0
  },
  {
   "name": "group_0_4754452",
   "mesh": 1
  }
 ],
 "scene": 0,
 "scenes": [
  {
   "nodes": [
    0
   ]
  }
 ]
}