{
 "accessors": [
  {
   "componentType": 5126,
   "type": "VEC3",
   "count": 1796,
   "max": [
    1.069309949874878,
    2.9317100048065186,
    0.660269021987915
   ],
   "min": [
    -1.0687899589538574,
    -1.2692099809646606,
    -0.31501901149749756
   ],
   "bufferView": 0
  },
  {
   "componentType": 5126,
   "type": "VEC3",
   "count": 1796,
   "bufferView": 1
  },
  {
   "componentType": 5123,
   "type": "SCALAR",
   "count": 9180,
   "bufferView": 2
  },
  {
   "componentType": 5126,
   "type": "VEC3",
   "count": 422,
   "max": [
    0.9019449949264526,
    2.641309976577759,
    0.7444850206375122
   ],
   "min": [
    -0.9019449949264526,
    -0.2655709981918335,
    0.048183999955654144
   ],
   "bufferView": 3
  },
  {
   "componentType": 5126,
   "type": "VEC3",
   "count": 422,
   "bufferView": 4
  },
  {
   "componentType": 5123,
   "type": "SCALAR",
   "count": 2400,
   "bufferView": 5
  },
  {
   "componentType": 5126,
   "type": "VEC3",
   "count": 3497,
   "max": [
    0.9180920124053955,
    2.2574799060821533,
    0.7804409861564636
   ],
   "min": [
    -0.9180920124053955,
    -3.2507100105285645,
    -0.1698399931192398
   ],
   "bufferView": 6
  },
  {
   "componentType": 5126,
   "type": "VEC3",
   "count": 3497,
   "bufferView": 7
  },
  {
   "componentType": 5123,
   "type": "SCALAR",
   "count": 7596,
   "bufferView": 8
  },
  {
   "componentType": 5126,
   "type": "VEC3",
   "count": 16496,
   "max": [
    1.1698999404907227,
    3.0370500087738037,
    0.890392005443573
   ],
   "min": [
    -1.1693799495697021,
    -3.2677299976348877,
    -0.3720090091228485
   ],
   "bufferView": 9
  },
  {
   "componentType": 5126,
   "type": "VEC3",
   "count": 16496,
   "bufferView": 10
  },
  {
   "componentType": 5123,
   "type": "SCALAR",
   "count": 50262,
   "bufferView": 11
  }
 ],
 "asset": {
  "version": "2.0",
  "generator": "clara.io"
 },
 "bufferViews": [
  {
   "buffer": 0,
   "byteOffset": 0,
   "byteLength": 21552,
   "target": 34962,
   "byteStride": 12
  },
  {
   "buffer": 0,
   "byteOffset": 21552,
   "byteLength": 21552,
   "target": 34962,
   "byteStride": 12
  },
  {
   "buffer": 0,
   "byteOffset": 43104,
   "byteLength": 18360,
   "target": 34963
  },
  {
   "buffer": 0,
   "byteOffset": 61464,
   "byteLength": 5064,
   "target": 34962,
   "byteStride": 12
  },
  {
   "buffer": 0,
   "byteOffset": 66528,
   "byteLength": 5064,
   "target": 34962,
   "byteStride": 12
  },
  {
   "buffer": 0,
   "byteOffset": 71592,
   "byteLength": 4800,
   "target": 34963
  },
  {
   "buffer": 0,
   "byteOffset": 76392,
   "byteLength": 41964,
   "target": 34962,
   "byteStride": 12
  },
  {
   "buffer": 0,
   "byteOffset": 118356,
   "byteLength": 41964,
   "target": 34962,
   "byteStride": 12
  },
  {
   "buffer": 0,
   "byteOffset": 160320,
   "byteLength": 15192,
   "target": 34963
  },
  {
   "buffer": 0,
   "byteOffset": 175512,
   "byteLength": 197952,
   "target": 34962,
   "byteStride": 12
  },
  {
   "buffer": 0,
   "byteOffset": 373464,
   "byteLength": 197952,
   "target": 34962,
   "byteStride": 12
  },
  {
   "buffer": 0,
   "byteOffset": 571416,
   "byteLength": 100524,
   "target": 34963
  }
 ],
 "buffers": [
  {
   "byteLength": 671940,
   "uri": "data:application/octet-stream;base64,"
  }
 ],
 "materials": [
  {
   "name": "light",
   "pbrMetallicRoughness": {
    "roughnessFactor": 0.1961,
    "metallicFactor": 0
   },
   "emissiveFactor": [
    1,
    1,
    1
   ],
   "doubleSided": true
  },
  {
   "name": "red",
   "pbrMetallicRoughness": {
    "baseColorFactor": [
     0.6862745098039216,
     0.16862745098039217,
     0.16862745098039217,
     1
    ],
    "roughnessFactor": 0.1048,
    "metallicFactor": 0
   },
   "doubleSided": true
  },
  {
   "name": "gold",
   "pbrMetallicRoughness": {
    "baseColorFactor": [
     0.7568627450980392,
     0.7411764705882353,
     0.3843137254901961,
     1
    ],
    "roughnessFactor": 0.0995,
    "metallicFactor": 0
   },
   "doubleSided": true
  },
  {
   "name": "silver",
   "pbrMetallicRoughness": {
    "baseColorFactor": [
     0.5800000000000001,
     0.5800000000000001,
     0.5800000000000001,
     1
    ],
    "roughnessFactor": 0.1048,
    "metallicFactor": 0
   },
   "doubleSided": true
  }
 ],
 "meshes": [
  {
   "primitives": [
    {
     "indices": 2,
     "material": 2,
     "mode": 4,
     "attributes": {
      "POSITION": 0,
      "NORMAL": 1
     }
    }
   ]
  },
  {
   "primitives": [
    {
     "indices": 5,
     "material": 0,
     "mode": 4,
     "attributes": {
      "POSITION": 3,
      "NORMAL": 4
     }
    }
   ]
  },
  {
   "primitives": [
    {
     "indices": 8,
     "material": 3,
     "mode": 4,
     "attributes": {
      "POSITION": 6,
      "NORMAL": 7
     }
    }
   ]
  },
  {
   "primitives": [
    {
     "indices": 11,
     "material": 1,
     "mode": 4,
     "attributes": {
      "POSITION": 9,
      "NORMAL": 10
     }
    }
   ]
  }
 ],
 "nodes": [
  {
   "name": "LightPreset",
   "translation": [
    0.0002599954605102539,
    -0.11533999443054199,
    0.25919151306152344
   ]
  },
  {
   "name": "Gold",
   "mesh": 0
  },
  {
   "name": "Light Constants",
   "mesh": 1
  },
  {
   "name": "Silver",
   "mesh": 2
  },
  {
   "name": "Red",
   "mesh": 3
  }
 ],
 "scene": 0,
 "scenes": [
  {
   "nodes": [
    0,
    1,
    2,
    3,
    4
   ]
  }
 ]
}