{
 "accessors": [
  {
   "componentType": 5126,
   "type": "VEC3",
   "count": 19309,
   "max": [
    16,
    80.54399871826172,
    30
   ],
   "min": [
    -13.048999786376953,
    51,
    2
   ],
   "bufferView": 0
  },
  {
   "componentType": 5126,
   "type": "VEC3",
   "count": 19309,
   "bufferView": 1
  },
  {
   "componentType": 5123,
   "type": "SCALAR",
   "count": 60840,
   "bufferView": 2
  },
  {
   "componentType": 5126,
   "type": "VEC3",
   "count": 16320,
   "max": [
    17,
    82.54399871826172,
    25.5
   ],
   "min": [
    -13.048999786376953,
    52.54800033569336,
    6.5
   ],
   "bufferView": 3
  },
  {
   "componentType": 5126,
   "type": "VEC3",
   "count": 16320,
   "bufferView": 4
  },
  {
   "componentType": 5123,
   "type": "SCALAR",
   "count": 50118,
   "bufferView": 5
  }
 ],
 "asset": {
  "version": "2.0",
  "generator": "clara.io"
 },
 "bufferViews": [
  {
   "buffer": 0,
   "byteOffset": 0,
   "byteLength": 231708,
   "target": 34962,
   "byteStride": 12
  },
  {
   "buffer": 0,
   "byteOffset": 231708,
   "byteLength": 231708,
   "target": 34962,
   "byteStride": 12
  },
  {
   "buffer": 0,
   "byteOffset": 463416,
   "byteLength": 121680,
   "target": 34963
  },
  {
   "buffer": 0,
   "byteOffset": 585096,
   "byteLength": 195840,
   "target": 34962,
   "byteStride": 12
  },
  {
   "buffer": 0,
   "byteOffset": 780936,
   "byteLength": 195840,
   "target": 34962,
   "byteStride": 12
  },
  {
   "buffer": 0,
   "byteOffset": 976776,
   "byteLength": 100236,
   "target": 34963
  }
 ],
 "buffers": [
  {
   "byteLength": 1077012,
   "uri": "data:application/octet-stream;base64,"
  }
 ],
 "materials": [
  {
   "name": "color_15277357",
   "pbrMetallicRoughness": {
    "baseColorFactor": [
     0.9137254901960784,
     0.11372549019607843,
     0.17647058823529413,
     1
    ],
    "roughnessFactor": 0.25,
    "metallicFactor": 0
   }
  },
  {
   "name": "color_16768282",
   "pbrMetallicRoughness": {
    "baseColorFactor": [
     1,
     0.8666666666666667,
     0.10196078431372549,
     1
    ],
    "roughnessFactor": 0.25,
    "metallicFactor": 0
   }
  }
 ],
 "meshes": [
  {
   "primitives": [
    {
     "indices": 2,
     "material": 1,
     "mode": 4,
     "attributes": {
      "POSITION": 0,
      "NORMAL": 1
     }
    }
   ]
  },
  {
   "primitives": [
    {
     "indices": 5,
     "material": 0,
     "mode": 4,
     "attributes": {
      "POSITION": 3,
      "NORMAL": 4
     }
    }
   ]
  }
 ],
 "nodes": [
  {
   "name": "tinker_root",
   "scale": [
    0.009999999776482582,
    0.009999999776482582,
    0.009999999776482582
   ],
   "children": [
    1,
    2
   ]
  },
  {
   "name": "group_0_16768282",
   "mesh": 0
  },
  {
   "name": "group_0_15277357",
   "mesh": 1
  }
 ],
 "scene": 0,
 "scenes": [
  {
   "nodes": [
    0
   ]
  }
 ]
}